<?xml version="1.0" encoding="UTF-8" standalone="no"?>
<svg width="300px" height="52px" xmlns="http://www.w3.org/2000/svg" xmlns:xlink="http://www.w3.org/1999/xlink" xmlns:serif="http://www.serif.com/"   viewBox="0 0 207 36" version="1.1" xml:space="preserve" style="fill-rule:evenodd;clip-rule:evenodd;stroke-linejoin:round;stroke-miterlimit:2;">
  <path id="Fill-1" d="M94.768,12.716c0,0.546 0,5.462 -0.546,7.1c-1.158,3.476 -4.369,2.731 -4.914,0.546c-0.593,-2.369 0,-6.554 0,-7.646c-0.547,-0.546 -2.185,-1.092 -3.277,-0.546c-0.546,0.546 -2.184,5.462 -3.276,7.1c-1.093,1.639 -2.185,3.277 -4.369,3.277c-1.092,-0 -2.73,-0.546 -2.184,-4.915c0.045,-0.357 0.093,-0.728 0.144,-1.109c2.798,-0.057 5.115,-0.329 6.409,-1.622c1.392,-1.393 1.092,-4.37 0,-7.101c-0.731,-1.828 -2.731,-4.915 -3.823,-5.462c-0.69,-0.345 -2.184,-0.546 -3.276,-0c-0.546,0.547 -1.638,6.554 -2.184,9.286c-0.073,0.363 -0.146,0.737 -0.22,1.117c-0.485,-0.014 -0.962,-0.025 -1.419,-0.025c-0.981,-0 -2.812,-0.071 -4.778,-0.136c0.497,-2.489 0.956,-4.825 0.956,-5.326c0,-0.546 -2.184,-1.092 -3.276,-0.546c-0.375,0.375 -1.006,3.063 -1.543,5.773c-2.057,-0.028 -3.698,0.015 -3.918,0.235c-0.863,0.864 -1.638,2.731 -1.092,3.277c0.191,0.191 1.983,0.315 4.302,0.396c-0.506,3.009 -0.804,4.535 -0.479,6.158c0.546,2.731 3.276,3.823 6.006,3.823c3.276,-0 4.915,-1.638 5.461,-2.184c0.546,0.546 2.548,2.184 5.278,2.184c1.639,-0 4.005,-0 7.281,-5.461c0,3.823 2.184,5.461 4.369,5.461c2.73,-0 3.822,-1.092 3.822,-1.092c0,-0 0,3.277 -1.638,5.462c-1.639,2.184 -3.823,2.184 -3.823,3.823c0,1.638 3.12,1.951 5.461,0.546c2.73,-1.638 3.899,-5.45 4.368,-8.739c0.547,-3.823 0.547,-13.108 0,-13.654c-0.546,-0.546 -3.822,-0.772 -3.822,-0Zm-42.48,-0.813c-0.536,-0 -0.536,1.068 -2.144,2.671c-1.367,1.362 -2.68,1.603 -2.68,1.603c-0,-0 -0.635,-2.453 -3.217,-3.74c-2.144,-1.069 -6.968,-1.069 -8.576,3.74c-0.913,2.729 -0,4.809 -1.608,4.809c-1.609,-0 -0.998,-4.263 -0.537,-7.48c0.537,-3.74 2.681,-12.289 2.145,-12.823c-1.072,-0.535 -2.681,-0.535 -3.753,-0c-0.536,0.534 -1.608,2.671 -3.216,4.808c-0.91,1.209 -1.072,1.069 -1.608,-0c-0.536,-1.068 -1.608,-3.74 -2.144,-4.808c-1.072,-0.535 -2.68,-0.535 -3.752,-0c-0.536,0.534 -2.631,12.837 -3.753,16.563c-1.608,5.342 -3.752,11.22 -8.04,11.22c-2.145,0 -4.289,-2.138 -4.289,-5.343c-0,-3.206 1.644,-6.205 5.361,-6.946c2.68,-0.534 2.68,-4.274 -0,-4.274c-2.144,0 -5.361,0.534 -8.041,3.74c-2.68,3.205 -3.312,8.892 -1.072,13.357c1.608,3.206 5.36,4.808 8.041,4.808c1.607,0 5.36,-0.534 8.576,-5.342c2.144,-3.206 3.809,-9.07 4.289,-11.22c1.072,-4.809 1.608,-8.549 1.608,-8.549c-0,0 0.536,1.069 1.608,2.671c1.072,1.603 1.608,1.069 2.68,0l2.68,-2.671c-0,0 -2.206,6.983 -1.608,11.754c0.536,4.275 3.216,5.343 4.825,5.343c2.68,0 3.216,-2.137 3.216,-2.137c-0,0 1.608,2.137 4.288,2.137c2.68,0 5.897,-1.068 6.433,-5.877c1.072,0 2.585,-0.649 3.216,-1.069c1.608,-1.068 2.144,-2.137 2.144,-2.137c-0,0 3.217,2.672 2.68,4.275c-0.536,1.602 -3.151,0.912 -4.288,0.534c-1.608,-0.534 -2.68,-0.534 -3.216,0.534c-0.536,1.069 -0,2.672 2.144,3.206c1.163,0.29 2.68,0.534 4.288,0.534c2.681,0 4.825,-1.603 4.825,-3.74c-0,-2.203 -1.072,-4.274 -3.216,-6.946c-2.145,-2.671 -3.753,-3.205 -4.289,-3.205Zm72.274,-1.691c0.533,-0.53 1.428,-2.613 1.066,-4.768c-0.533,-3.178 -3.2,-5.297 -6.933,-5.297c-2.667,-0 -5.867,1.589 -6.4,4.768c-0.133,0.79 -0.053,1.495 0.176,2.15c-2.356,0.049 -4.651,0.175 -4.976,0.498c-1.067,1.059 -1.6,2.649 -1.067,3.178c0.533,0.53 4.8,-0.529 8,-0.529c0.103,-0 0.207,-0 0.312,0.001c1.108,1.12 2.391,2.274 3.422,3.707c2.666,3.708 3.274,6.663 2.666,8.475c-0.533,1.589 -1.6,3.178 -4.267,3.178c-2.133,-0 -4.81,-1.11 -5.333,-3.708c-0.533,-2.648 0.59,-3.82 1.067,-4.767c1.066,-2.119 -1.6,-4.238 -3.2,-2.649c-0.755,0.749 -2.282,2.624 -2.667,5.297c-0.533,3.708 0.246,6.56 3.2,9.005c3.2,2.649 8.534,2.649 11.2,1.06c2.045,-1.219 5.333,-4.238 4.8,-10.065c-0.29,-3.165 -2.666,-6.356 -4.267,-8.475c-0.221,-0.293 -0.464,-0.583 -0.716,-0.87c2.055,0.075 3.638,0.087 3.917,-0.189Zm78.446,4.939c-1.937,-1.466 -4.837,-3.254 -5.374,-3.254c-0.538,-0 -2.15,3.254 -3.225,4.882c-1.075,1.627 -2.687,3.797 -3.762,4.339c-1.075,0.543 -1.612,-1.085 -1.075,-3.255c0.538,-2.169 1.075,-4.881 1.075,-5.424c-0.537,-0.542 -2.912,-0.858 -3.762,-0c-0.537,0.543 -0.663,3.218 -1.075,4.882c-0.537,2.17 -1.612,4.882 -3.762,4.882c-2.216,-0 -2.15,-2.17 -1.612,-4.34c0.537,-2.169 1.075,-4.339 1.075,-5.424c-0,-0.542 -2.688,-1.085 -3.762,-0c-0.537,1.085 -1.865,2.569 -3.225,3.255c-1.075,0.542 -1.612,0.542 -1.612,0.542c-0,-0 -0.636,-2.49 -3.225,-3.797c-2.149,-1.085 -6.986,-1.085 -8.599,3.797c-0.915,2.771 -0.297,3.612 -0.537,4.34c-0.537,1.627 -3.762,2.169 -3.455,-0c0.228,-1.611 1.612,-7.594 1.612,-8.137c-0,-0.767 -3.612,-0.752 -3.762,-0c-0.537,2.712 -1.074,4.882 -1.612,6.509c-0.537,1.628 -1.689,3.255 -2.457,3.255c-1.699,-0 -1.305,-1.627 -0.23,-7.052c-0,-0 -0.537,-1.085 -3.762,-1.627c-3.859,-0.649 -4.299,-2.17 -4.299,-2.17c-0,-0 -2.15,-1.085 -3.225,0.543c-0.943,1.427 0.537,2.712 1.612,2.712c0.538,2.712 -0.537,5.424 -2.687,7.052c-1.216,0.92 -4.299,1.627 -5.911,0.542c-1.613,-1.085 -1.613,-2.17 -1.613,-2.17l3.225,-0c1.612,-0 3.762,-0 4.837,-0.542c1.074,-4.882 -2.15,-7.594 -5.375,-7.594c-2.74,-0 -6.449,2.169 -6.449,7.594c-0,5.424 5.375,6.509 7.524,6.509c1.613,-0 3.225,-0 5.374,-1.085c2.15,-1.085 4.3,-4.882 4.837,-8.136c-0,-0 1.612,-0 2.15,0.542c-0,0.542 -0.95,3.76 -0.538,5.424c0.538,2.17 2.15,3.255 4.3,3.255c1.612,-0 2.15,-0.542 3.225,-1.627c1.074,1.085 2.149,1.627 3.762,1.627c2.687,-0 5.067,-2.17 5.067,-2.17c-0,-0 1.612,2.17 4.299,2.17c2.687,-0 5.912,-1.085 6.449,-5.967c1.075,-0.542 2.15,-1.085 3.225,-2.17c-0,-0 -1.217,2.824 -0.538,4.882c0.538,1.628 2.687,3.255 5.912,3.255c2.687,-0 3.762,-0.542 4.837,-1.627c0.537,1.085 1.075,1.627 2.15,1.627c2.687,-0 4.299,-2.17 5.374,-3.255c1.075,-1.084 4.3,-5.966 4.3,-5.966c-0,-0 5.03,2.712 4.493,4.339c-0.538,1.627 -3.16,0.926 -4.3,0.543c-1.612,-0.543 -2.687,-0.543 -3.224,0.542c-0.538,1.085 -0,2.712 2.149,3.255c1.166,0.294 2.687,0.542 4.3,0.542c2.687,-0 4.609,-1.639 4.837,-3.797c0.343,-3.255 -1.806,-5.424 -3.956,-7.052Zm-134.997,7.396c-1.092,0 -2.184,-0.479 -2.184,-2.731c-0,-0.883 0.189,-2.077 0.433,-3.335c2.331,0.039 4.652,0.052 6.172,0.056c-0.31,1.207 -0.677,2.344 -1.145,3.279c-1.092,2.185 -2.184,2.731 -3.276,2.731Zm99.527,-1.007c-1.613,0 -2.688,-1.085 -2.688,-3.255c-0,-1.627 1.075,-2.712 2.15,-2.712c1.613,0 2.687,1.628 2.687,3.255c-0,1.627 -1.074,2.712 -2.149,2.712Zm-125.435,-0.02c-1.608,0 -2.68,-1.069 -2.68,-3.206c-0,-1.603 1.072,-2.671 2.144,-2.671c1.608,0 2.68,1.603 2.68,3.205c-0,1.603 -1.072,2.672 -2.144,2.672Zm91.346,-6.369c1.075,-0 2.15,0.543 2.15,1.628c-0.537,0.542 -2.15,0.542 -2.687,0.542c-0.537,-0 -1.613,-0 -2.15,-0.542c-0,-0.543 1.075,-1.628 2.687,-1.628Zm-55.609,-8.443c-0,-0 2.73,3.277 2.184,4.916c-0.277,0.831 -1.54,1.1 -3.144,1.163c0.482,-3.208 0.96,-6.079 0.96,-6.079Zm79.66,3.292c1.381,-0 2.5,-1.119 2.5,-2.5c-0,-1.381 -1.119,-2.5 -2.5,-2.5c-1.381,-0 -2.5,1.119 -2.5,2.5c-0,1.381 1.119,2.5 2.5,2.5Zm-35.605,-2.967l-4.336,-0c-0.287,-0.398 -0.464,-0.755 -0.464,-1.059c-0,-1.589 1.067,-2.119 2.133,-2.119c1.6,-0 3.2,1.06 2.667,3.178Z" style="fill:#f45d20;"></path>
</svg>
