<svg xmlns="http://www.w3.org/2000/svg" viewBox="0 0 512 512"><path fill="currentColor" d="M240 56c0-30.9-25.1-56-56-56-28.9 0-52.7 21.9-55.7 49.9C100.6 56.9 80 82.1 80 112c0 6 .8 11.9 2.4 17.4C53.6 135.7 32 161.3 32 192c0 15 5.1 28.8 13.8 39.7C18.7 244.5 0 272.1 0 304c0 34.2 21.4 63.4 51.6 74.8-2.3 6.6-3.6 13.8-3.6 21.2 0 35.3 28.7 64 64 64 5.6 0 11.1-.7 16.3-2.1 2.9 28.2 26.8 50.1 55.7 50.1 30.9 0 56-25.1 56-56V272h-48c-8.8 0-16 7.2-16 16v34.7c18.6 6.6 32 24.4 32 45.3 0 26.5-21.5 48-48 48s-48-21.5-48-48c0-20.9 13.4-38.7 32-45.3V288c0-26.5 21.5-48 48-48h48v-80h-34.7c-6.6 18.6-24.4 32-45.3 32-26.5 0-48-21.5-48-48s21.5-48 48-48c20.9 0 38.7 13.4 45.3 32H240V56zm32 104v192h34.7c6.6-18.6 24.4-32 45.3-32 26.5 0 48 21.5 48 48s-21.5 48-48 48c-20.9 0-38.7-13.4-45.3-32H272v72c0 30.9 25.1 56 56 56 28.9 0 52.7-21.9 55.7-50.1 5.2 1.4 10.7 2.1 16.3 2.1 35.3 0 64-28.7 64-64 0-7.4-1.3-14.6-3.6-21.2 30.2-11.4 51.6-40.6 51.6-74.8 0-31.9-18.7-59.5-45.8-72.3C474.9 220.8 480 207 480 192c0-30.7-21.6-56.3-50.4-62.6 1.6-5.5 2.4-11.4 2.4-17.4 0-29.9-20.6-55.1-48.3-62.1C380.6 21.9 356.9 0 328 0c-30.9 0-56 25.1-56 56v72h48c26.5 0 48 21.5 48 48v2.7c18.6 6.6 32 24.4 32 45.3 0 26.5-21.5 48-48 48s-48-21.5-48-48c0-20.9 13.4-38.7 32-45.3V176c0-8.8-7.2-16-16-16h-48zm-128-16a16 16 0 1032 0 16 16 0 10-32 0zm208 64a16 16 0 100 32 16 16 0 100-32zM144 368a16 16 0 1032 0 16 16 0 10-32 0zm192 0a16 16 0 1032 0 16 16 0 10-32 0z"/></svg>
