<?xml version="1.0" encoding="UTF-8" standalone="no"?>
<!DOCTYPE svg PUBLIC "-//W3C//DTD SVG 1.1//EN" "http://www.w3.org/Graphics/SVG/1.1/DTD/svg11.dtd">
<svg width="100%" height="100%" viewBox="0 0 600 600" version="1.1" xmlns="http://www.w3.org/2000/svg" xmlns:xlink="http://www.w3.org/1999/xlink" xml:space="preserve" xmlns:serif="http://www.serif.com/" style="fill-rule:evenodd;clip-rule:evenodd;stroke-linejoin:round;stroke-miterlimit:2;">
    <g transform="matrix(1.10254,0,0,1.10254,-9.76996e-15,-9.76996e-15)">
        <path d="M272.1,0C2.1,0 0,121.8 0,272.1C0,422.4 2.1,544.2 272.1,544.2C542.1,544.2 544.2,422.4 544.2,272.1C544.2,121.8 542.1,0 272.1,0Z" style="fill:url(#_Linear1);fill-rule:nonzero;"/>
    </g>
    <g transform="matrix(0.817831,0,0,0.817831,61.0949,42.8424)">
        <path d="M93.94,578.2L93.94,307.2C93.94,238.06 149.98,182.02 219.12,182.02C311.26,182.02 357.62,235.34 357.62,311.26C357.62,387.18 311.26,440.48 219.12,440.48L160.22,440.48C159.46,440.48 158.86,441.1 158.86,441.84L158.86,532.24C158.86,562.84 134.04,587.66 103.44,587.66C98.2,587.66 93.96,583.42 93.96,578.18L93.94,578.2ZM216.22,382.54C259.1,382.54 293.5,350.08 295.04,311.26C296.96,262.92 264.1,239.72 225.16,239.46L225.04,239.46C194.74,238.42 159.42,261.9 158.86,297.36L158.86,368.42C158.86,376.22 165.18,382.56 173,382.56L216.24,382.56L216.22,382.54ZM367.92,102.56L367.98,102.56C390.04,81.72 405.78,22.14 405.78,22.14C407.88,15.56 410.62,16.24 412.48,17.84C413.74,18.94 414.56,20.46 414.96,22.08C417.4,31.96 430.84,82.44 454.98,103.02C481.46,125.6 534.08,139.5 534.08,139.5C537.7,141.04 539.9,141.8 539.02,144C538.46,145.42 534.56,146.96 533.08,147.38C524.26,149.92 477.02,164.1 456.74,180.8C434.32,199.26 419.82,255.52 414.54,266.06C411.1,272.92 407.68,269.18 405.7,265.74C404.7,264 404,262.1 403.52,260.16C400.96,249.78 387.82,200.46 363.1,181.24C335.38,159.68 300.2,155.12 287.94,149.6C279.14,145.64 280.02,143.16 281.12,141.96C282.74,140.2 286.96,138.98 289.26,138.38C300.74,135.38 346.86,122.48 367.92,102.56Z" style="fill:white;"/>
    </g>
    <defs>
        <linearGradient id="_Linear1" x1="0" y1="0" x2="1" y2="0" gradientUnits="userSpaceOnUse" gradientTransform="matrix(544.2,544.2,-544.2,544.2,0,0)"><stop offset="0" style="stop-color:rgb(91,27,227);stop-opacity:1"/><stop offset="1" style="stop-color:rgb(179,58,204);stop-opacity:1"/></linearGradient>
    </defs>
</svg>
